<?xml version="1.0" encoding="utf-8"?>
<!-- Generator: Adobe Illustrator 22.1.0, SVG Export Plug-In . SVG Version: 6.00 Build 0)  -->
<svg version="1.1" id="Layer_1" xmlns="http://www.w3.org/2000/svg" xmlns:xlink="http://www.w3.org/1999/xlink" x="0px" y="0px"
	 viewBox="0 0 175.7 11.2" style="enable-background:new 0 0 175.7 11.2;" xml:space="preserve">
<style type="text/css">
	.st0{fill:#FFFFFF;}
	.st1{fill:#454242;}
</style>
<g>
	<g>
		<path class="st0" d="M169.6,11.1c-0.1,0-0.3-0.1-0.4-0.2c-0.2-0.2-0.2-0.5,0-0.7l4.8-4.6L169.3,1c-0.2-0.2-0.2-0.5,0-0.7
			s0.5-0.2,0.7,0l5.1,5c0.1,0.1,0.2,0.2,0.2,0.4s-0.1,0.3-0.2,0.4l-5.1,5C169.9,11.1,169.7,11.1,169.6,11.1z"/>
	</g>
	<g>
		<path class="st0" d="M6.8,8.9H5.9L4.7,5.3c0-0.1-0.1-0.4-0.1-0.5c0,0-0.1,0.3-0.1,0.5L3.3,8.9H2.4l-2.1-6h1.2l1.2,3.8
			c0,0.1,0.1,0.5,0.1,0.6L3,6.7l1.2-3.8H5l1.2,3.8c0,0.1,0.1,0.6,0.1,0.6s0.1-0.4,0.1-0.6l1.2-3.8h1.2L6.8,8.9z"/>
		<path class="st0" d="M16.1,8.9l-0.6-1.5h-2.4l-0.6,1.5h-1.2l2.5-6h1l2.5,6H16.1z M14.3,4.4l-0.9,2.2h1.8L14.3,4.4z"/>
		<path class="st0" d="M23,3.9v5h-1.2v-5h-2v-1h5.3v1H23z"/>
		<path class="st0" d="M31.4,9c-1.7,0-3.2-1.2-3.2-3.1c0-1.9,1.5-3.1,3.2-3.1c0.8,0,1.6,0.2,2.1,0.6v1.1c-0.5-0.4-1.1-0.7-2-0.7
			c-1.2,0-2.1,0.8-2.1,2.1c0,1.3,0.9,2.1,2.1,2.1c0.8,0,1.5-0.3,2-0.7v1.1C33,8.8,32.2,9,31.4,9z"/>
		<path class="st0" d="M41.7,8.9V6.3h-2.8v2.6h-1.2v-6h1.2v2.3h2.8V2.9h1.2v6H41.7z"/>
		<path class="st0" d="M54.6,3.9v5h-1.2v-5h-2v-1h5.3v1H54.6z"/>
		<path class="st0" d="M64.5,8.9V6.3h-2.8v2.6h-1.2v-6h1.2v2.3h2.8V2.9h1.2v6H64.5z"/>
		<path class="st0" d="M70,8.9v-6h3.9v1h-2.7v1.4h2.2v0.9h-2.2V8h2.7v0.9H70z"/>
		<path class="st0" d="M84,3.9v1.4h2.1v0.9H84v2.7h-1.2v-6h3.8v1H84z"/>
		<path class="st0" d="M93.2,9.1c-1.6,0-2.8-0.9-2.8-2.9V2.9h1.2v3.2c0,1.3,0.6,1.9,1.5,1.9s1.5-0.6,1.5-1.9V2.9h1.2v3.2
			C95.9,8.2,94.8,9.1,93.2,9.1z"/>
		<path class="st0" d="M100.3,8.9v-6h1.2v5h2.7v0.9H100.3z"/>
		<path class="st0" d="M107.9,8.9v-6h1.2v5h2.7v0.9H107.9z"/>
		<path class="st0" d="M123.3,8.9h-0.9l-2.5-6h1.2l1.8,4.3l1.8-4.3h1.2L123.3,8.9z"/>
		<path class="st0" d="M129.6,8.9v-6h1.2v6H129.6z"/>
		<path class="st0" d="M137.2,8.9h-2.1v-6h2.1c2.4,0,3.4,1.3,3.4,3C140.6,7.6,139.6,8.9,137.2,8.9z M137.1,3.9h-0.8v4h0.8
			c1.6,0,2.2-0.8,2.2-2S138.8,3.9,137.1,3.9z"/>
		<path class="st0" d="M144.6,8.9v-6h3.9v1h-2.7v1.4h2.2v0.9h-2.2V8h2.7v0.9H144.6z"/>
		<path class="st0" d="M155.5,9.1c-1.8,0-3.3-1.3-3.3-3.2s1.4-3.2,3.3-3.2c1.8,0,3.2,1.3,3.2,3.2S157.3,9.1,155.5,9.1z M155.5,3.7
			c-1.2,0-2,0.9-2,2.2c0,1.3,0.8,2.2,2,2.2c1.2,0,2-0.9,2-2.2C157.4,4.6,156.6,3.7,155.5,3.7z"/>
	</g>
</g>
</svg>
