<svg id="Layer_1" data-name="Layer 1" xmlns="http://www.w3.org/2000/svg" viewBox="0 0 391.63 13.44"><defs><style>.cls-1{fill:#fff;}</style></defs><title>Artboard 3</title><path class="cls-1" d="M12.35,12.87,10.94,9.79H4.45L3,12.87H.73L6.53.57H8.91l5.8,12.3ZM7.69,2.66,5.21,8h4.92Z"/><path class="cls-1" d="M36.73,12.87,29,3.59v9.28H26.91V.57h2l7.7,9.29V.57h2.12v12.3Z"/><path class="cls-1" d="M67.39,12.87V.57h2.19v12.3Z"/><path class="cls-1" d="M95.29,8.72a4.81,4.81,0,0,1-2,3.31A7.24,7.24,0,0,1,89,13.18a7.67,7.67,0,0,1-3.52-.76,5.58,5.58,0,0,1-2.35-2.24,6.82,6.82,0,0,1-.85-3.46,6.85,6.85,0,0,1,.81-3.36,5.75,5.75,0,0,1,2.33-2.28A7.34,7.34,0,0,1,89,.26q4.93,0,6.07,4.12l-2.21.33a3.75,3.75,0,0,0-1.38-2A4.37,4.37,0,0,0,89,2.09a4.26,4.26,0,0,0-3.24,1.24,4.7,4.7,0,0,0-1.19,3.39,4.66,4.66,0,0,0,1.2,3.4,4.4,4.4,0,0,0,3.3,1.24,4.71,4.71,0,0,0,2.63-.64,3.27,3.27,0,0,0,1.29-2Z"/><path class="cls-1" d="M121.35,6.72a6.66,6.66,0,0,1-.84,3.39,5.64,5.64,0,0,1-2.42,2.26,8.08,8.08,0,0,1-3.73.81,8.27,8.27,0,0,1-3.65-.76,5.69,5.69,0,0,1-2.44-2.24,6.63,6.63,0,0,1-.87-3.46,6.72,6.72,0,0,1,.83-3.38,5.78,5.78,0,0,1,2.42-2.27,8.12,8.12,0,0,1,3.74-.81A8.23,8.23,0,0,1,118,1a5.58,5.58,0,0,1,2.45,2.23A6.63,6.63,0,0,1,121.35,6.72Zm-2.26,0a4.6,4.6,0,0,0-1.23-3.41,4.73,4.73,0,0,0-3.47-1.22,4.8,4.8,0,0,0-3.49,1.22,4.57,4.57,0,0,0-1.25,3.41,4.58,4.58,0,0,0,1.23,3.41,4.72,4.72,0,0,0,3.48,1.23,4.78,4.78,0,0,0,3.49-1.23A4.55,4.55,0,0,0,119.09,6.72Z"/><path class="cls-1" d="M143.9,12.87l-7.7-9.28v9.28h-2.12V.57h2l7.7,9.29V.57h2.12v12.3Z"/><path class="cls-1" d="M183.63,12.87,180.85,8l-.3,0h-3.87v4.82h-2.1V.57h5.88q4.93,0,4.94,3.74A3.22,3.22,0,0,1,183,7.62l3.1,5.25Zm-3.31-6.6a4,4,0,0,0,2.19-.48,1.67,1.67,0,0,0,.72-1.5,1.68,1.68,0,0,0-.68-1.49,4.11,4.11,0,0,0-2.2-.45h-3.67V6.27Z"/><path class="cls-1" d="M198.32,12.87V.57h10V2.41h-7.84V5.62H208V7.46h-7.46V11h8.22l-.31,1.84Z"/><path class="cls-1" d="M221.44,12.87V.57h2.19v12.3Z"/><path class="cls-1" d="M249.79,12.87V3.67l-4.41,9.2h-1.75L239.2,3.74v9.13h-2V.57h2.62l4.77,10,4.77-10h2.53v12.3Z"/><path class="cls-1" d="M275.69,12.87l-1.42-3.08h-6.49l-1.43,3.08h-2.29l5.8-12.3h2.38l5.81,12.3ZM271,2.66,268.54,8h4.92Z"/><path class="cls-1" d="M299.72,8.12H296V6.31h5.79v5.18a8.23,8.23,0,0,1-2.65,1.25,11.36,11.36,0,0,1-3.21.44,8.58,8.58,0,0,1-3.76-.76,5.61,5.61,0,0,1-2.47-2.19,6.56,6.56,0,0,1-.87-3.46,6.92,6.92,0,0,1,.82-3.42A5.64,5.64,0,0,1,292,1.07a7.87,7.87,0,0,1,3.68-.81,6.9,6.9,0,0,1,3.76,1,4.76,4.76,0,0,1,2,2.7l-2.17.31A3,3,0,0,0,298,2.6a4.71,4.71,0,0,0-2.36-.53,4.49,4.49,0,0,0-3.37,1.23,4.72,4.72,0,0,0-1.2,3.44,4.56,4.56,0,0,0,1.25,3.44,5,5,0,0,0,3.61,1.19,8,8,0,0,0,3.79-.79Z"/><path class="cls-1" d="M314.77,12.87V.57H317v12.3Z"/><path class="cls-1" d="M340.32,12.87l-7.7-9.28v9.28H330.5V.57h2l7.7,9.29V.57h2.11v12.3Z"/><path class="cls-1" d="M355.9,12.87V.57h10V2.41h-7.84V5.62h7.46V7.46h-7.46V11h8.22L366,12.87Z"/><path class="cls-1" d="M379,12.87V.57h5.34a7.73,7.73,0,0,1,5.25,1.59,5.71,5.71,0,0,1,1.82,4.56,5.59,5.59,0,0,1-1.93,4.56,8.44,8.44,0,0,1-5.5,1.59ZM384.06,11a5.76,5.76,0,0,0,3.82-1.1,4,4,0,0,0,1.28-3.21q0-4.3-4.79-4.31H381.2V11Z"/></svg>