<svg id="Layer_1" data-name="Layer 1" xmlns="http://www.w3.org/2000/svg" viewBox="0 0 546.04 158.31"><defs><style>.cls-1{fill:#fff;}</style></defs><title>Artboard 2</title><polygon class="cls-1" points="205.44 157.83 205.44 149.11 192.81 149.11 192.81 157.83 190.14 157.83 190.14 138.56 192.81 138.56 192.81 146.6 205.44 146.6 205.44 138.56 208.12 138.56 208.12 157.83 205.44 157.83"/><path class="cls-1" d="M246.94,148.19a7.58,7.58,0,0,0-2.1-5.7,9.46,9.46,0,0,0-11.75,0,8.75,8.75,0,0,0,0,11.4,9.48,9.48,0,0,0,11.76,0,7.58,7.58,0,0,0,2.11-5.7m2.79,0a10.54,10.54,0,0,1-1.3,5.28,8.93,8.93,0,0,1-3.74,3.56,12.11,12.11,0,0,1-5.73,1.28,12.51,12.51,0,0,1-5.61-1.2,8.83,8.83,0,0,1-3.79-3.49,11.39,11.39,0,0,1-.07-10.7,8.88,8.88,0,0,1,3.74-3.56,12.05,12.05,0,0,1,5.73-1.29,12.65,12.65,0,0,1,5.61,1.2,9,9,0,0,1,3.79,3.5,10.42,10.42,0,0,1,1.37,5.42"/><polygon class="cls-1" points="274.76 157.83 274.76 140.91 266.78 140.91 266.78 138.56 285.43 138.56 285.43 140.91 277.44 140.91 277.44 157.83 274.76 157.83"/><polygon class="cls-1" points="304.59 157.83 304.59 138.56 319.91 138.56 319.91 140.91 307.26 140.91 307.26 146.71 319.29 146.71 319.29 149.06 307.26 149.06 307.26 155.48 320.48 155.48 320.02 157.83 304.59 157.83"/><polygon class="cls-1" points="340.56 157.83 340.56 138.56 343.23 138.56 343.23 155.48 355.86 155.48 355.39 157.83 340.56 157.83"/><polygon class="cls-1" points="513 88.18 513 56.19 509.77 56.19 509.77 91.41 545 91.41 545 88.18 513 88.18"/><polygon class="cls-1" points="406.78 59.42 422.77 59.42 422.77 91.41 426.01 91.41 426.01 59.42 442.01 59.42 442.01 56.19 406.78 56.19 406.78 59.42"/><polygon class="cls-1" points="172.58 59.42 188.58 59.42 188.58 91.41 191.81 91.41 191.81 59.42 207.81 59.42 207.81 56.19 172.58 56.19 172.58 59.42"/><rect class="cls-1" x="227.1" y="56.18" width="3.23" height="35.23"/><polygon class="cls-1" points="391.08 56.19 387.85 56.19 387.85 87.17 358.78 56.19 355.86 56.19 355.86 91.41 359.09 91.41 359.09 61.24 387.39 91.41 391.08 91.41 391.08 56.19"/><polygon class="cls-1" points="286.14 56.19 282.9 56.19 282.9 87.17 253.83 56.19 250.91 56.19 250.91 91.41 254.14 91.41 254.14 61.24 282.45 91.41 286.14 91.41 286.14 56.19"/><polygon class="cls-1" points="156.43 56.19 153.19 56.19 153.19 87.17 124.12 56.19 121.2 56.19 121.2 91.41 124.43 91.41 124.43 61.24 152.74 91.41 156.43 91.41 156.43 56.19"/><path class="cls-1" d="M100.37,73.8a11.18,11.18,0,0,1-1.46,5.53h0a14.92,14.92,0,0,1-4,4.59,20.1,20.1,0,0,1-6,3.11,24.36,24.36,0,0,1-14.73,0,20.15,20.15,0,0,1-6-3.11,15.19,15.19,0,0,1-4-4.59,11.27,11.27,0,0,1,0-11.06,15.08,15.08,0,0,1,4-4.59,20.17,20.17,0,0,1,6-3.12,24.36,24.36,0,0,1,14.73,0,20.24,20.24,0,0,1,6,3.12,14.81,14.81,0,0,1,4,4.59,11.16,11.16,0,0,1,1.46,5.53M97.54,61.29a24.53,24.53,0,0,0-7.2-3.74,29.08,29.08,0,0,0-17.64,0,24.54,24.54,0,0,0-7.2,3.74,18.27,18.27,0,0,0-4.88,5.59,14.07,14.07,0,0,0,0,13.84,18.5,18.5,0,0,0,4.88,5.59A24.52,24.52,0,0,0,72.7,90a29.08,29.08,0,0,0,17.64,0,24.28,24.28,0,0,0,7.2-3.73,18.54,18.54,0,0,0,4.89-5.59,14.13,14.13,0,0,0,0-13.84,18.3,18.3,0,0,0-4.89-5.59"/><path class="cls-1" d="M10.34,63.68h0a20.24,20.24,0,0,1,6-3.12,23.54,23.54,0,0,1,7.37-1.14,24.08,24.08,0,0,1,5.42.6A22.08,22.08,0,0,1,34,61.73a18.49,18.49,0,0,1,3.95,2.63,14.35,14.35,0,0,1,2.86,3.33l.16.26h4.29l-.45-.81a17.87,17.87,0,0,0-3.43-4.45,21.58,21.58,0,0,0-4.83-3.46,26.64,26.64,0,0,0-6-2.24,28.1,28.1,0,0,0-6.81-.81,28,28,0,0,0-8.82,1.38,24.29,24.29,0,0,0-7.2,3.73,18.13,18.13,0,0,0-4.88,5.59,14.07,14.07,0,0,0,0,13.84A18.37,18.37,0,0,0,7.7,86.31,24.52,24.52,0,0,0,14.9,90a28,28,0,0,0,8.82,1.37,28.61,28.61,0,0,0,6.81-.8,26.54,26.54,0,0,0,6-2.25,21.36,21.36,0,0,0,4.83-3.46,17.82,17.82,0,0,0,3.43-4.44l.45-.81H40.92l-.16.26a14.59,14.59,0,0,1-2.86,3.33A18.49,18.49,0,0,1,34,85.87a22.44,22.44,0,0,1-4.81,1.7A24.27,24.27,0,0,1,16.35,87a20.1,20.1,0,0,1-6-3.11,14.92,14.92,0,0,1-4-4.59,11.2,11.2,0,0,1,0-11.06,14.81,14.81,0,0,1,4-4.59"/><path class="cls-1" d="M485.05,72.81H460.38c3-6.33,7.18-10.69,12.34-13,5.14,2.27,9.29,6.63,12.33,13M473.33,56.52l-.61-.25-.62.25c-18.27,7.37-19.69,33.17-19.74,34.26l0,.63h3.3l0-.47A54.32,54.32,0,0,1,459,76.11h27.51a56,56,0,0,1,3.31,14.83l0,.47h3.29l0-.63c-.06-1.09-1.48-26.89-19.75-34.26"/><path class="cls-1" d="M314.88,63.23a16.66,16.66,0,0,1,5.36-2.89,18.6,18.6,0,0,1,11.11-.09,17.44,17.44,0,0,1,4.11,1.86,2.2,2.2,0,0,1,.25.17,1.5,1.5,0,0,0,.24.18l.42.29,1.71-2.19.28-.48-.45-.34a21.11,21.11,0,0,0-5.15-2.46,22.58,22.58,0,0,0-13.76,0,20.68,20.68,0,0,0-6.47,3.5A17.76,17.76,0,0,0,308,66.2,15.78,15.78,0,0,0,307.48,80a18.09,18.09,0,0,0,4,5.76,20.64,20.64,0,0,0,6.18,4,21.78,21.78,0,0,0,7.69,1.69h.94a21.8,21.8,0,0,0,5.08-.58,21.43,21.43,0,0,0,5.34-2c.29-.16.57-.35.85-.54l.61-.47v-.49L336.45,85l-.43.3a16.22,16.22,0,0,1-1.52.92,17.48,17.48,0,0,1-4.25,1.52,18.49,18.49,0,0,1-4.73.42,18,18,0,0,1-6.35-1.4,17,17,0,0,1-5.1-3.3,14.58,14.58,0,0,1-3.32-4.73,10.53,10.53,0,0,1-1-3.61h17.1V71.85h-17a13.75,13.75,0,0,1,1.32-4.2,14.53,14.53,0,0,1,3.68-4.43"/><path class="cls-1" d="M112.12,4.19A2.38,2.38,0,0,0,111,2.9a4.58,4.58,0,0,0-2.09-.39,5.54,5.54,0,0,0-2.37.41,1.27,1.27,0,0,0-.84,1.16,1.31,1.31,0,0,0,.26.83,1.68,1.68,0,0,0,.8.53,6.4,6.4,0,0,0,1.45.33l2,.3a5.27,5.27,0,0,1,2.66,1,2.55,2.55,0,0,1,.86,2,2.48,2.48,0,0,1-1.21,2.21,6.2,6.2,0,0,1-3.4.79,6.86,6.86,0,0,1-3.67-.81A3.19,3.19,0,0,1,104,8.85h1.48a2.14,2.14,0,0,0,1.1,1.52,5.41,5.41,0,0,0,2.56.49,4.91,4.91,0,0,0,2.33-.45,1.43,1.43,0,0,0,.81-1.3A1.33,1.33,0,0,0,111.72,8a4.14,4.14,0,0,0-1.8-.59l-1.8-.27a8.76,8.76,0,0,1-2.28-.59,2.67,2.67,0,0,1-1.21-1,2.75,2.75,0,0,1-.36-1.46A2.37,2.37,0,0,1,105.5,2a6.57,6.57,0,0,1,3.42-.76,7.92,7.92,0,0,1,2.25.28,3.28,3.28,0,0,1,1.47.88A3.77,3.77,0,0,1,113.5,4Z"/><path class="cls-1" d="M134.05,6.69a4.08,4.08,0,0,0-1.12-3.07,4.38,4.38,0,0,0-3.17-1.09,4.32,4.32,0,0,0-3.15,1.1,4,4,0,0,0-1.14,3.06,4.08,4.08,0,0,0,1.13,3.06,5.07,5.07,0,0,0,6.32,0,4.07,4.07,0,0,0,1.13-3m1.5,0a5.58,5.58,0,0,1-.7,2.83,4.79,4.79,0,0,1-2,1.91,6.58,6.58,0,0,1-3.09.69,6.7,6.7,0,0,1-3-.64,4.82,4.82,0,0,1-2-1.88A5.57,5.57,0,0,1,124,6.69a5.59,5.59,0,0,1,.7-2.84,4.85,4.85,0,0,1,2-1.91,6.57,6.57,0,0,1,3.08-.69,6.74,6.74,0,0,1,3,.65,4.79,4.79,0,0,1,2,1.87,5.67,5.67,0,0,1,.73,2.92"/><path class="cls-1" d="M151,6.43c1.76,0,2.64-.62,2.64-1.85A1.55,1.55,0,0,0,153,3.19a3.62,3.62,0,0,0-2-.42h-3.33V6.43Zm3,5.43-2.39-4.19h-3.94v4.18h-1.4V1.51h4.83c2.66,0,4,1,4,3.1a2.67,2.67,0,0,1-2,2.77l2.6,4.48Z"/><path class="cls-1" d="M170.77,6.43c1.76,0,2.64-.62,2.64-1.85a1.55,1.55,0,0,0-.63-1.39,3.6,3.6,0,0,0-2-.42h-3.32V6.43Zm3,5.43-2.39-4.19h-3.93v4.18h-1.41V1.51h4.83c2.67,0,4,1,4,3.1a2.67,2.67,0,0,1-2,2.77l2.59,4.48Z"/><polygon class="cls-1" points="185.82 11.86 185.82 1.51 194.05 1.51 194.05 2.77 187.25 2.77 187.25 5.89 193.72 5.89 193.72 7.15 187.25 7.15 187.25 10.6 194.35 10.6 194.11 11.86 185.82 11.86"/><polygon class="cls-1" points="213.43 11.86 206.54 3.54 206.54 11.86 205.14 11.86 205.14 1.51 206.53 1.51 213.42 9.83 213.42 1.51 214.82 1.51 214.82 11.86 213.43 11.86"/><polygon class="cls-1" points="229.4 11.86 229.4 2.77 225.11 2.77 225.11 1.51 235.13 1.51 235.13 2.77 230.84 2.77 230.84 11.86 229.4 11.86"/><path class="cls-1" d="M254.36,6.69a4.08,4.08,0,0,0-1.12-3.07,5.11,5.11,0,0,0-6.32,0,4,4,0,0,0-1.14,3.06,4.08,4.08,0,0,0,1.13,3.06,4.38,4.38,0,0,0,3.17,1.1,4.32,4.32,0,0,0,3.15-1.11,4.07,4.07,0,0,0,1.13-3m1.5,0a5.58,5.58,0,0,1-.7,2.83,4.79,4.79,0,0,1-2,1.91,6.57,6.57,0,0,1-3.08.69,6.71,6.71,0,0,1-3-.64,4.82,4.82,0,0,1-2-1.88,5.57,5.57,0,0,1-.73-2.91,5.59,5.59,0,0,1,.7-2.84,4.82,4.82,0,0,1,2-1.91,6.51,6.51,0,0,1,3.08-.69,6.73,6.73,0,0,1,3,.65,4.79,4.79,0,0,1,2,1.87,5.67,5.67,0,0,1,.73,2.92"/><path class="cls-1" d="M283.25,6.69a1.89,1.89,0,0,1-.61,1.48,2.29,2.29,0,0,1-1.62.56,2.33,2.33,0,0,1-1.62-.56,1.89,1.89,0,0,1-.61-1.48,1.91,1.91,0,0,1,.61-1.49A2.33,2.33,0,0,1,281,4.64a2.29,2.29,0,0,1,1.62.56,1.91,1.91,0,0,1,.61,1.49"/><polygon class="cls-1" points="306.74 11.86 306.74 1.51 314.97 1.51 314.97 2.77 308.17 2.77 308.17 5.89 314.64 5.89 314.64 7.15 308.17 7.15 308.17 10.6 315.27 10.6 315.03 11.86 306.74 11.86"/><path class="cls-1" d="M333.52,4.19a2.38,2.38,0,0,0-1.11-1.29,4.58,4.58,0,0,0-2.09-.39,5.51,5.51,0,0,0-2.37.41,1.27,1.27,0,0,0-.84,1.16,1.31,1.31,0,0,0,.26.83,1.69,1.69,0,0,0,.79.53,6.64,6.64,0,0,0,1.46.33l2,.3a5.27,5.27,0,0,1,2.66,1,2.55,2.55,0,0,1,.86,2,2.48,2.48,0,0,1-1.21,2.21,6.22,6.22,0,0,1-3.4.79,6.9,6.9,0,0,1-3.68-.81,3.15,3.15,0,0,1-1.46-2.46h1.48a2.11,2.11,0,0,0,1.1,1.52,5.39,5.39,0,0,0,2.56.49,4.91,4.91,0,0,0,2.33-.45,1.43,1.43,0,0,0,.81-1.3A1.31,1.31,0,0,0,333.11,8a4,4,0,0,0-1.79-.59l-1.8-.27a8.76,8.76,0,0,1-2.28-.59,2.67,2.67,0,0,1-1.21-1,2.75,2.75,0,0,1-.37-1.46A2.38,2.38,0,0,1,326.9,2a6.57,6.57,0,0,1,3.42-.76,7.92,7.92,0,0,1,2.25.28,3.28,3.28,0,0,1,1.47.88A3.77,3.77,0,0,1,334.9,4Z"/><polygon class="cls-1" points="348.89 11.86 348.89 2.77 344.6 2.77 344.6 1.51 354.61 1.51 354.61 2.77 350.32 2.77 350.32 11.86 348.89 11.86"/><polygon class="cls-1" points="381.42 11.86 381.42 3.4 378.7 5.02 378.09 3.98 381.56 1.84 382.82 1.84 382.82 11.86 381.42 11.86"/><path class="cls-1" d="M402.86,4.43a1.42,1.42,0,0,0-.72-1.25,4.45,4.45,0,0,0-3.9,0,1.43,1.43,0,0,0-.72,1.26q0,1.74,2.67,1.74c1.78,0,2.67-.59,2.67-1.75m.34,4.7c0-1.19-1-1.79-3-1.79a4.54,4.54,0,0,0-2.28.45,1.48,1.48,0,0,0-.75,1.36A1.48,1.48,0,0,0,398,10.5a4.47,4.47,0,0,0,2.25.46,4.28,4.28,0,0,0,2.23-.47,1.5,1.5,0,0,0,.77-1.36m-.79-2.44a3.14,3.14,0,0,1,1.59.92,2.22,2.22,0,0,1,.58,1.54,2.5,2.5,0,0,1-1.13,2.2,5.79,5.79,0,0,1-3.26.77,5.91,5.91,0,0,1-3.27-.74,2.41,2.41,0,0,1-1.12-2.16,2.34,2.34,0,0,1,.57-1.58A3.2,3.2,0,0,1,398,6.69a2.65,2.65,0,0,1-1.32-.9,2.22,2.22,0,0,1-.47-1.43,2.37,2.37,0,0,1,1.08-2,6.15,6.15,0,0,1,5.87,0,2.36,2.36,0,0,1,1.05,2.05,2.32,2.32,0,0,1-.47,1.44,2.63,2.63,0,0,1-1.31.89"/><path class="cls-1" d="M416.93,11.86a37.44,37.44,0,0,1,1.9-4.58,38.78,38.78,0,0,1,2.47-4.21h-6.6V1.84h8.16V3a35.11,35.11,0,0,0-4.47,8.91Z"/><path class="cls-1" d="M436,3.08l-.28,3a4.47,4.47,0,0,1,1.2-.49,6.48,6.48,0,0,1,1.47-.13,4,4,0,0,1,2.7.85,3,3,0,0,1,1,2.36,3.29,3.29,0,0,1-1,2.57,4.21,4.21,0,0,1-2.89.91q-3.64,0-4-2.82h1.38a2,2,0,0,0,.82,1.25,3.49,3.49,0,0,0,1.82.37,2.84,2.84,0,0,0,1.92-.57,2.16,2.16,0,0,0,.64-1.69q0-2.13-2.58-2.13a5,5,0,0,0-1.44.18,3.08,3.08,0,0,0-1.1.64h-1.19l.47-5.5h6.49V3.08Z"/><path class="cls-1" d="M361.74,11a.91.91,0,1,1-.9-.9.9.9,0,0,1,.9.9"/></svg>