<svg id="Layer_1" data-name="Layer 1" xmlns="http://www.w3.org/2000/svg" viewBox="0 0 128.21 38.47"><defs><style>.cls-1{fill:#fff;}</style></defs><title>Artboard 1</title><path class="cls-1" d="M93.05,7.94h9.57v3.78H93.05Zm-55.12,0H47.5v3.78H37.93ZM6.28,19.87A8.9,8.9,0,0,1,0,17.53l2.92-3.22a4.59,4.59,0,0,0,3.59,1.77c1.35,0,2.85-.64,2.85-1.95C9.36,10.7.61,12.54.61,6.32c0-4,3.45-6.07,7.12-6.07a8.48,8.48,0,0,1,5.72,2L10.63,5.29a4,4,0,0,0-3-1.24c-1.16,0-2.77.53-2.77,1.93,0,3.4,8.6,1.21,8.6,7.75,0,4.17-3.35,6.14-7.2,6.14M32.76,4.45H27.43V19.34H23.32V4.45H18V.68H32.76Zm18.32,14.9H37.93V15.57H51.08Zm0-14.9H37.93V.67H51.08Zm19.2,14.9h-14V.68h4.12V15.57h9.9Zm18,0h-14V.66h4.11V15.57h9.9Zm17.92,0H93.05V15.57h13.16Zm0-14.9H93.05V.67h13.16Zm17.06,14.9-3.9-7.64h-3.5v7.64h-4.11V7.93h9.78a1.72,1.72,0,0,0,1.75-1.73,1.75,1.75,0,0,0-1.75-1.76h-9.78V.67h9c3.71.08,6.77,1.43,6.77,5.69a4.8,4.8,0,0,1-4,5.11l4.75,7.88Z"/><polygon class="cls-1" points="6.5 33.37 5.46 37.17 4.35 33.37 3.65 33.37 2.54 37.17 1.5 33.37 0.79 33.37 2.18 38.2 2.84 38.2 4 34.3 5.16 38.2 5.82 38.2 7.21 33.37 6.5 33.37"/><polygon class="cls-1" points="13.37 33.37 13.37 38.19 16.25 38.19 16.25 37.62 14.05 37.62 14.05 35.94 16.08 35.94 16.08 35.38 14.05 35.38 14.05 33.94 16.2 33.94 16.2 33.37 13.37 33.37"/><polygon class="cls-1" points="33.51 33.37 32.12 37.09 32.11 37.09 30.72 33.37 29.88 33.37 29.45 38.19 30.12 38.19 30.42 34.38 30.44 34.38 31.92 38.23 32.3 38.23 33.78 34.38 33.8 34.38 34.11 38.19 34.78 38.19 34.34 33.37 33.51 33.37"/><path class="cls-1" d="M42.94,34.2l.85,2.17H42.1Zm-.28-.84-2,4.83h.71l.5-1.26H44l.49,1.26h.76l-2-4.83Z"/><polygon class="cls-1" points="54 33.37 52.04 35.42 52.04 33.37 51.36 33.37 51.36 38.19 52.04 38.19 52.04 36.28 52.53 35.77 54.13 38.19 54.96 38.19 52.99 35.27 54.83 33.37 54 33.37"/><polygon class="cls-1" points="61 33.37 61 38.19 63.88 38.19 63.88 37.62 61.68 37.62 61.68 35.94 63.7 35.94 63.7 35.38 61.68 35.38 61.68 33.94 63.82 33.94 63.82 33.37 61 33.37"/><path class="cls-1" d="M79.29,34.11a1.19,1.19,0,0,0-.7-.19H78v1.65h.62a1.19,1.19,0,0,0,.7-.18.77.77,0,0,0,.29-.64.75.75,0,0,0-.29-.64m.52,1.67a1.75,1.75,0,0,1-1.17.34H78v2.07h-.68V33.37h1.35a1.75,1.75,0,0,1,1.17.34,1.29,1.29,0,0,1,.47,1,1.25,1.25,0,0,1-.47,1"/><polygon class="cls-1" points="86.59 33.37 86.59 38.19 88.97 38.19 88.97 37.61 87.27 37.61 87.27 33.37 86.59 33.37"/><path class="cls-1" d="M96.88,34.2l.85,2.17H96Zm-.28-.84-2,4.83h.71l.5-1.26h2.07l.49,1.26h.76l-2-4.83Z"/><path class="cls-1" d="M109.12,37.56a2.25,2.25,0,0,1-1.76.72,2.49,2.49,0,1,1,1.71-4.34l-.29.54a1.91,1.91,0,0,0-1.4-.58,1.88,1.88,0,0,0,0,3.75,1.9,1.9,0,0,0,1.44-.58Z"/><polygon class="cls-1" points="115.4 33.37 115.4 38.19 118.28 38.19 118.28 37.62 116.08 37.62 116.08 35.94 118.11 35.94 118.11 35.38 116.08 35.38 116.08 33.94 118.22 33.94 118.22 33.37 115.4 33.37"/><path class="cls-1" d="M127.15,37.9a1.85,1.85,0,0,1-1.18.38,2,2,0,0,1-1.56-.81l.4-.46a1.64,1.64,0,0,0,1.22.69.85.85,0,0,0,1-.81c0-.5-.54-.7-.79-.79a8.19,8.19,0,0,1-.76-.33,1.39,1.39,0,0,1-.49-.34,1.16,1.16,0,0,1-.31-.84,1.2,1.2,0,0,1,.44-.93,1.71,1.71,0,0,1,1.11-.35,1.86,1.86,0,0,1,1.38.62l-.35.46a1.48,1.48,0,0,0-1.06-.52c-.48,0-.84.23-.84.68s.33.61.62.73l.89.37a1.8,1.8,0,0,1,.54.39,1.27,1.27,0,0,1,.29.81,1.33,1.33,0,0,1-.5,1"/></svg>