<svg id="Layer_1" data-name="Layer 1" xmlns="http://www.w3.org/2000/svg" viewBox="0 0 129 38.42"><defs><style>.cls-1{fill:#454242;}</style></defs><title>Artboard 4</title><path class="cls-1" d="M93.53,7.68h9.57v3.79H93.53Zm-55.12,0H48v3.79H38.41ZM6.76,19.62A8.9,8.9,0,0,1,.48,17.28L3.4,14.06A4.62,4.62,0,0,0,7,15.83c1.34,0,2.84-.64,2.84-1.95,0-3.43-8.75-1.59-8.75-7.81C1.09,2.09,4.54,0,8.21,0a8.48,8.48,0,0,1,5.72,2L11.11,5a4,4,0,0,0-3-1.24C7,3.8,5.36,4.33,5.36,5.72c0,3.41,8.6,1.22,8.6,7.76,0,4.17-3.35,6.14-7.2,6.14M33.24,4.2H27.91V19.09H23.8V4.2H18.47V.43H33.24ZM51.56,19.1H38.41V15.32H51.56Zm0-14.9H38.41V.41H51.56Zm19.2,14.9h-14V.43h4.12V15.32h9.9Zm18,0h-14V.41h4.11V15.32h9.9Zm17.92,0H93.53V15.32h13.16Zm0-14.9H93.53V.41h13.16Zm17.06,14.9-3.9-7.64h-3.49V19.1h-4.12V7.68H122a1.72,1.72,0,0,0,1.75-1.74A1.75,1.75,0,0,0,122,4.19h-9.78V.42h9C124.91.5,128,1.85,128,6.1a4.81,4.81,0,0,1-4,5.12l4.75,7.88Z"/><polygon class="cls-1" points="6.98 33.12 5.94 36.92 4.83 33.12 4.14 33.12 3.03 36.92 1.99 33.12 1.27 33.12 2.66 37.95 3.33 37.95 4.48 34.05 5.64 37.95 6.3 37.95 7.69 33.12 6.98 33.12"/><polygon class="cls-1" points="13.86 33.12 13.86 37.94 16.73 37.94 16.73 37.37 14.53 37.37 14.53 35.69 16.56 35.69 16.56 35.13 14.53 35.13 14.53 33.69 16.68 33.69 16.68 33.12 13.86 33.12"/><polygon class="cls-1" points="33.99 33.12 32.6 36.84 32.59 36.84 31.2 33.12 30.36 33.12 29.93 37.94 30.6 37.94 30.9 34.13 30.93 34.13 32.4 37.98 32.78 37.98 34.26 34.13 34.28 34.13 34.59 37.94 35.26 37.94 34.82 33.12 33.99 33.12"/><path class="cls-1" d="M43.42,34l.85,2.17H42.58Zm-.28-.84-2,4.83h.71l.5-1.26h2.07L45,37.94h.76l-2-4.83Z"/><polygon class="cls-1" points="54.48 33.12 52.52 35.17 52.52 33.12 51.84 33.12 51.84 37.94 52.52 37.94 52.52 36.03 53.02 35.52 54.62 37.94 55.44 37.94 53.47 35.02 55.31 33.12 54.48 33.12"/><polygon class="cls-1" points="61.48 33.12 61.48 37.94 64.36 37.94 64.36 37.37 62.16 37.37 62.16 35.69 64.19 35.69 64.19 35.13 62.16 35.13 62.16 33.69 64.3 33.69 64.3 33.12 61.48 33.12"/><path class="cls-1" d="M79.77,33.86a1.19,1.19,0,0,0-.7-.19h-.62v1.65h.62a1.19,1.19,0,0,0,.7-.18.77.77,0,0,0,.29-.64.75.75,0,0,0-.29-.64m.52,1.67a1.74,1.74,0,0,1-1.16.34h-.68v2.07h-.68V33.12h1.36a1.74,1.74,0,0,1,1.16.34,1.29,1.29,0,0,1,.47,1,1.25,1.25,0,0,1-.47,1"/><polygon class="cls-1" points="87.08 33.12 87.08 37.94 89.45 37.94 89.45 37.36 87.75 37.36 87.75 33.12 87.08 33.12"/><path class="cls-1" d="M97.36,34l.85,2.17H96.52Zm-.28-.84-2,4.83h.71l.5-1.26H98.4l.49,1.26h.76l-2-4.83Z"/><path class="cls-1" d="M109.6,37.31a2.25,2.25,0,0,1-1.76.72,2.49,2.49,0,1,1,1.71-4.34l-.29.54a1.91,1.91,0,0,0-1.4-.58,1.88,1.88,0,0,0,0,3.75,1.9,1.9,0,0,0,1.44-.58Z"/><polygon class="cls-1" points="115.88 33.12 115.88 37.94 118.76 37.94 118.76 37.37 116.56 37.37 116.56 35.69 118.59 35.69 118.59 35.13 116.56 35.13 116.56 33.69 118.71 33.69 118.71 33.12 115.88 33.12"/><path class="cls-1" d="M127.63,37.65a1.83,1.83,0,0,1-1.18.38,2,2,0,0,1-1.55-.81l.39-.46a1.64,1.64,0,0,0,1.23.69.84.84,0,0,0,.94-.81c0-.5-.54-.7-.78-.79a7.4,7.4,0,0,1-.77-.33,1.29,1.29,0,0,1-.48-.34,1.12,1.12,0,0,1-.32-.84,1.2,1.2,0,0,1,.44-.93,1.71,1.71,0,0,1,1.11-.35,1.91,1.91,0,0,1,1.39.62l-.36.46a1.48,1.48,0,0,0-1.06-.52c-.48,0-.84.23-.84.68s.33.61.62.73l.89.37a1.8,1.8,0,0,1,.54.39,1.22,1.22,0,0,1,.3.81,1.34,1.34,0,0,1-.51,1"/></svg>